<?xml version="1.0" encoding="UTF-8"?>
<svg version="1.1" xmlns="http://www.w3.org/2000/svg" width="1137" height="203">
<path d="M0 0 C375.21 0 750.42 0 1137 0 C1137 66.99 1137 133.98 1137 203 C761.79 203 386.58 203 0 203 C0 136.01 0 69.02 0 0 Z " fill="#FEFEFE" transform="translate(0,0)"/>
<path d="M0 0 C0.91136719 0.4021875 1.82273438 0.804375 2.76171875 1.21875 C25.52698105 11.79727063 43.52826334 32.76412189 52.375 56.0625 C56.5428621 67.65905407 58.45072816 78.66029746 58 91 C57.33170166 91.05945801 56.66340332 91.11891602 55.97485352 91.18017578 C32.58766237 93.35899448 12.27148139 98.31534124 -6 114 C-7.23363281 115.03447266 -7.23363281 115.03447266 -8.4921875 116.08984375 C-21.72661677 127.53420584 -30.55473883 141.44832509 -36 158 C-36.99 160.64 -37.98 163.28 -39 166 C-39.99 174.25 -40.98 182.5 -42 191 C-74.67 191 -107.34 191 -141 191 C-141.20081834 161.94381723 -141.20081834 161.94381723 -141.25126934 147.48647785 C-141.27886762 139.69908014 -141.3137825 131.91195318 -141.37719727 124.12475586 C-141.43282335 117.29066766 -141.46149738 110.45687249 -141.47438622 103.62257195 C-141.4835608 101.02690975 -141.50147498 98.43126194 -141.52865028 95.83572578 C-141.67372275 81.39356582 -141.33356747 68.54118098 -136 55 C-135.67246735 54.15674164 -135.34493469 53.31348328 -135.00747681 52.44467163 C-124.45795296 27.52020191 -104.74300481 8.66956475 -80.12353516 -2.14355469 C-54.30733412 -12.55551528 -25.18270452 -11.71010696 0 0 Z " fill="#155DFB" transform="translate(141,12)"/>
<path d="M0 0 C1.6830692 23.00194577 -7.16010986 46.55463297 -22 64 C-23.13695312 65.37671875 -23.13695312 65.37671875 -24.296875 66.78125 C-40.33029317 85.36776024 -63.69476781 97.15017068 -88 100 C-92.01840426 100.19985714 -95.98260385 100.20543503 -100 100 C-100.99373758 72.94825467 -90.61001138 49.80946503 -73.00390625 29.72265625 C-54.01044175 9.7814929 -27.4419487 -1.00807158 0 0 Z " fill="#FD8906" transform="translate(199,103)"/>
<path d="M0 0 C5.28 -0.061875 10.56 -0.12375 16 -0.1875 C17.65 -0.21481201 19.3 -0.24212402 21 -0.27026367 C37.37447793 -0.4311844 37.37447793 -0.4311844 42.53491211 4.45263672 C46.40745641 8.89746824 47.36563134 11.82554394 47.2734375 17.55078125 C46.82149137 21.59892731 45.50143687 24.78594449 43 28 C39.94943534 30.39885312 36.67849744 31.77383419 33 33 C33.46148438 33.3196875 33.92296875 33.639375 34.3984375 33.96875 C39.65215855 38.03882639 43.03604886 42.7244396 46.5 48.3125 C46.94520996 49.03050781 47.39041992 49.74851563 47.84912109 50.48828125 C51 55.70966709 51 55.70966709 51 58 C46.49895024 58.67927428 42.47952516 58.91135167 38 58 C34.42671206 54.87482798 32.3379099 51.09391712 30 47 C28.77129186 45.13165573 27.52242864 43.2763473 26.25 41.4375 C25.71890625 40.63183594 25.1878125 39.82617188 24.640625 38.99609375 C21.00472915 34.57242047 17.86706539 34.8381522 12 34 C12 41.92 12 49.84 12 58 C8.04 58 4.08 58 0 58 C0 38.86 0 19.72 0 0 Z " fill="#161D2D" transform="translate(782,72)"/>
<path d="M0 0 C0.33 0 0.66 0 1 0 C1.15855469 0.71542969 1.31710938 1.43085937 1.48046875 2.16796875 C7.87281332 29.46787124 22.43890375 52.22546847 46.23608398 67.45629883 C58.65754229 75.14164469 71.65795064 79.44532246 86 82 C86 82.33 86 82.66 86 83 C57.62 83 29.24 83 0 83 C0 55.61 0 28.22 0 0 Z " fill="#FDFDFE" transform="translate(0,120)"/>
<path d="M0 0 C5.88788638 2.07807755 8.72608311 5.58912466 12.1171875 10.67578125 C14.5052313 16.96288772 13.95635232 26.21806127 12.3125 32.71875 C10.00441441 37.71960212 6.19409948 41.66053893 1.0625 43.8125 C0.381875 43.874375 -0.29875 43.93625 -1 44 C-2.670625 44.1546875 -2.670625 44.1546875 -4.375 44.3125 C-8.91273055 43.92131633 -11.77968926 42.22031074 -15 39 C-15.33 45.6 -15.66 52.2 -16 59 C-19.63 59 -23.26 59 -27 59 C-27 39.86 -27 20.72 -27 1 C-23.7 1 -20.4 1 -17 1 C-16.67 2.32 -16.34 3.64 -16 5 C-15.5153125 4.6390625 -15.030625 4.278125 -14.53125 3.90625 C-9.38222358 0.3415394 -6.25556186 -0.80716927 0 0 Z " fill="#151D2C" transform="translate(425,87)"/>
<path d="M0 0 C4.29 0 8.58 0 13 0 C15.87393722 7.11709428 18.74349059 14.2359256 21.60533142 21.35789204 C22.93434228 24.66475655 24.26526871 27.9708229 25.60058594 31.27514648 C27.1352766 35.07307349 28.66160626 38.87431129 30.1875 42.67578125 C30.90933472 44.45714226 30.90933472 44.45714226 31.64575195 46.27449036 C32.0862085 47.37540512 32.52666504 48.47631989 32.98046875 49.6105957 C33.37129639 50.58100296 33.76212402 51.55141022 34.16479492 52.55122375 C35 55 35 55 35 58 C31.04 58 27.08 58 23 58 C20.525 52.06 20.525 52.06 18 46 C10.41 46 2.82 46 -5 46 C-5.639375 47.794375 -6.27875 49.58875 -6.9375 51.4375 C-8.875 56.875 -8.875 56.875 -10 58 C-12.01964199 58.07244053 -14.04167124 58.08377188 -16.0625 58.0625 C-17.16722656 58.05347656 -18.27195312 58.04445312 -19.41015625 58.03515625 C-20.69212891 58.01775391 -20.69212891 58.01775391 -22 58 C-19.74608169 51.03649575 -17.21113381 44.21990522 -14.55078125 37.40234375 C-14.13330124 36.32747208 -13.71582123 35.2526004 -13.28569031 34.14515686 C-11.96330594 30.74181813 -10.63795167 27.33964516 -9.3125 23.9375 C-8.41061018 21.61791517 -7.50891548 19.29825447 -6.60742188 16.97851562 C-4.40720377 11.31813031 -2.20432297 5.65878795 0 0 Z " fill="#151D2D" transform="translate(558,72)"/>
<path d="M0 0 C4.68723277 2.92102912 7.9235133 7.20749185 10.32421875 12.11328125 C11.76409701 19.95261847 11.08150648 26.19264796 7.19921875 33.23828125 C3.65452732 37.7409974 -0.37794873 41.11927263 -6.11328125 42.17578125 C-12.97268405 42.88738596 -18.45707422 42.30262758 -24.11328125 38.17578125 C-29.35395369 33.47082199 -31.62130041 28.86497361 -32.36328125 21.79296875 C-32.66037771 15.72105978 -31.74172832 11.11980562 -28.11328125 6.17578125 C-20.45558738 -1.99000606 -10.5530009 -4.51659876 0 0 Z " fill="#171F2E" transform="translate(958.11328125,88.82421875)"/>
<path d="M0 0 C4.68723277 2.92102912 7.9235133 7.20749185 10.32421875 12.11328125 C11.76409701 19.95261847 11.08150648 26.19264796 7.19921875 33.23828125 C3.65452732 37.7409974 -0.37794873 41.11927263 -6.11328125 42.17578125 C-12.97268405 42.88738596 -18.45707422 42.30262758 -24.11328125 38.17578125 C-29.35395369 33.47082199 -31.62130041 28.86497361 -32.36328125 21.79296875 C-32.66037771 15.72105978 -31.74172832 11.11980562 -28.11328125 6.17578125 C-20.45558738 -1.99000606 -10.5530009 -4.51659876 0 0 Z " fill="#171F2E" transform="translate(503.11328125,88.82421875)"/>
<path d="M0 0 C3.81223903 3.13450765 6.5430562 6.72309783 9 11 C9 12.32 9 13.64 9 15 C5.37 15.66 1.74 16.32 -2 17 C-2.5775 15.88625 -3.155 14.7725 -3.75 13.625 C-4.97865375 11.51325137 -5.85286307 10.12086248 -7.75 8.5625 C-12.37520737 7.40619816 -16.37565048 7.33549338 -20.75 9.125 C-24.02946617 11.85788848 -26.60003218 14.75077543 -27.36962891 19.07861328 C-27.50095405 21.39835272 -27.49690352 23.67751383 -27.4375 26 C-27.44813477 27.17175781 -27.44813477 27.17175781 -27.45898438 28.3671875 C-27.39630761 34.09487923 -26.2415874 38.29141523 -22.5 42.8125 C-19.00778413 45.5771709 -15.24372071 45.21578241 -11 45 C-7.7027668 44.76217403 -7.7027668 44.76217403 -5 43 C-3.58624874 40.09277466 -2.73675695 37.14091123 -2 34 C-0.54096742 34.30921884 0.91720722 34.62248799 2.375 34.9375 C3.18710937 35.11152344 3.99921875 35.28554687 4.8359375 35.46484375 C7 36 7 36 9 37 C8.37772565 43.53388068 5.81615006 47.26281299 1.125 51.75 C-5.45391992 56.48682235 -12.08707821 56.8238389 -20 56 C-28.43642485 53.65654865 -33.64577568 48.50728331 -38 41 C-41.04873872 31.98444406 -41.74701729 20.96923001 -38.09375 11.98828125 C-30.27100587 -2.23235005 -14.63046788 -7.38912519 0 0 Z " fill="#151D2C" transform="translate(303,74)"/>
<path d="M0 0 C4.3897973 2.57828706 6.54842 6.56949626 8.7890625 11.05078125 C9.2840625 16.99078125 9.2840625 16.99078125 9.7890625 23.05078125 C0.5490625 23.05078125 -8.6909375 23.05078125 -18.2109375 23.05078125 C-16.18477871 30.82355163 -16.18477871 30.82355163 -12.2109375 33.05078125 C-9.25347258 33.63423601 -9.25347258 33.63423601 -6.2109375 33.05078125 C-5.6540625 32.20515625 -5.0971875 31.35953125 -4.5234375 30.48828125 C-2.2109375 28.05078125 -2.2109375 28.05078125 0.48046875 27.94140625 C3.27568763 28.21271741 6.02276033 28.56906311 8.7890625 29.05078125 C6.45075488 34.71773853 4.43063851 38.11246041 -1.2109375 41.05078125 C-7.20788341 42.8845581 -13.74142754 43.05562533 -19.5234375 40.48828125 C-23.50721243 38.21414252 -26.21299406 35.1752911 -28.2109375 31.05078125 C-30.11290532 23.73365664 -30.45802034 14.90225047 -27.3984375 7.87109375 C-20.937562 -2.0327483 -10.66040726 -4.48076879 0 0 Z " fill="#151D2D" transform="translate(1048.2109375,88.94921875)"/>
<path d="M0 0 C4.89940754 3.37514742 9.43357898 8.00813963 10.8125 13.9375 C10.8125 17.2375 10.8125 20.5375 10.8125 23.9375 C1.9025 23.9375 -7.0075 23.9375 -16.1875 23.9375 C-15.5275 26.9075 -14.8675 29.8775 -14.1875 32.9375 C-12.0528125 33.2778125 -12.0528125 33.2778125 -9.875 33.625 C-9.07449219 33.75261719 -8.27398438 33.88023438 -7.44921875 34.01171875 C-5.11825373 34.15805526 -5.11825373 34.15805526 -3.45703125 32.58203125 C-2.11461765 30.95219975 -2.11461765 30.95219975 -1.1875 28.9375 C0.070625 28.916875 1.32875 28.89625 2.625 28.875 C3.33269531 28.86339844 4.04039062 28.85179688 4.76953125 28.83984375 C6.8125 28.9375 6.8125 28.9375 9.8125 29.9375 C8.56034899 35.78087138 5.59350896 38.66852506 0.8125 41.9375 C-5.16874663 43.93124888 -11.86184022 43.93658576 -17.625 41.25 C-20.93708349 39.33319094 -23.08514811 37.17188752 -25.1875 33.9375 C-25.54199219 33.40640625 -25.89648438 32.8753125 -26.26171875 32.328125 C-28.82769194 25.70206765 -28.43802551 15.81251895 -26.27734375 9.1171875 C-23.52580508 4.46345971 -19.52588738 0.95471824 -14.27734375 -0.64453125 C-9.36997762 -1.62600448 -4.75256901 -1.58418967 0 0 Z " fill="#151D2D" transform="translate(713.1875,88.0625)"/>
<path d="M0 0 C5.52190515 3.07952403 9.13958979 6.81449202 11.25 12.8125 C11.25 16.4425 11.25 20.0725 11.25 23.8125 C2.34 23.8125 -6.57 23.8125 -15.75 23.8125 C-14.52956109 30.00121183 -14.52956109 30.00121183 -10.75 33.8125 C-6.67205575 34.23728586 -5.21923881 34.12532587 -1.75 31.8125 C-1.42 30.8225 -1.09 29.8325 -0.75 28.8125 C2.88 29.1425 6.51 29.4725 10.25 29.8125 C9.22845341 34.92023293 9.06907327 35.50440271 5.375 38.5625 C4.67632813 39.15546875 3.97765625 39.7484375 3.2578125 40.359375 C-1.48772108 43.79388569 -7.14693476 43.34904523 -12.75 42.8125 C-18.38144205 41.24137499 -21.66915132 38.32199511 -24.83984375 33.49609375 C-28.15159307 27.37006818 -27.66256104 18.1669251 -26.25390625 11.4453125 C-24.22313663 6.28233888 -20.53146823 2.98664951 -16 0 C-10.36696243 -2.05822527 -5.68434111 -1.80004135 0 0 Z " fill="#151C2C" transform="translate(863.75,88.1875)"/>
<path d="M0 0 C3.96 0 7.92 0 12 0 C13.3406751 3.91429249 14.67279005 7.8311436 16 11.75 C16.3815625 12.86117187 16.763125 13.97234375 17.15625 15.1171875 C17.5171875 16.18710938 17.878125 17.25703125 18.25 18.359375 C18.75273438 19.83615723 18.75273438 19.83615723 19.265625 21.34277344 C20 24 20 24 20 28 C20.66 28 21.32 28 22 28 C22.26683594 26.7109375 22.53367187 25.421875 22.80859375 24.09375 C23.91625224 19.1127025 25.42015603 14.32713264 27.0625 9.5 C27.33126953 8.69046875 27.60003906 7.8809375 27.87695312 7.046875 C29.86615044 1.13384956 29.86615044 1.13384956 31 0 C32.85287502 -0.07226502 34.70833878 -0.0838122 36.5625 -0.0625 C37.57441406 -0.05347656 38.58632812 -0.04445313 39.62890625 -0.03515625 C40.41136719 -0.02355469 41.19382812 -0.01195313 42 0 C41.3186463 2.8937577 40.46523605 5.66916372 39.48120117 8.47387695 C39.17385544 9.35191483 38.8665097 10.2299527 38.54985046 11.13459778 C38.2175795 12.07631332 37.88530853 13.01802887 37.54296875 13.98828125 C37.02661613 15.45312202 37.02661613 15.45312202 36.49983215 16.94755554 C35.77043876 19.01319624 35.03991621 21.07843851 34.30834961 23.14331055 C33.19614154 26.28806614 32.09314081 29.43595669 30.99023438 32.58398438 C30.27921638 34.59395192 29.56764561 36.60372402 28.85546875 38.61328125 C28.52927048 39.5489241 28.2030722 40.48456696 27.86698914 41.44856262 C23.31238281 54.20790333 23.31238281 54.20790333 18.5 57.9375 C13.34411984 59.50267791 8.34659848 59.23358925 3 59 C3 56.36 3 53.72 3 51 C3.93972656 50.85304688 3.93972656 50.85304688 4.8984375 50.703125 C5.71570312 50.55359375 6.53296875 50.4040625 7.375 50.25 C8.18710938 50.11078125 8.99921875 49.9715625 9.8359375 49.828125 C12.14337247 49.18544074 12.14337247 49.18544074 13.265625 47.08984375 C14.86995925 42.5243181 14.21523919 39.17317861 12.19921875 34.9140625 C9.98024713 30.05451466 8.17503058 25.11110009 6.4375 20.0625 C6.14681641 19.23298828 5.85613281 18.40347656 5.55664062 17.54882812 C3.54038227 11.7436279 1.73342223 5.89574308 0 0 Z " fill="#171E2E" transform="translate(1093,88)"/>
<path d="M0 0 C3.96 0 7.92 0 12 0 C13.3406751 3.91429249 14.67279005 7.8311436 16 11.75 C16.3815625 12.86117187 16.763125 13.97234375 17.15625 15.1171875 C17.5171875 16.18710938 17.878125 17.25703125 18.25 18.359375 C18.75273437 19.83615723 18.75273437 19.83615723 19.265625 21.34277344 C20 24 20 24 20 28 C20.66 28 21.32 28 22 28 C22.26683594 26.7109375 22.53367187 25.421875 22.80859375 24.09375 C23.91625224 19.1127025 25.42015603 14.32713264 27.0625 9.5 C27.33126953 8.69046875 27.60003906 7.8809375 27.87695312 7.046875 C29.86615044 1.13384956 29.86615044 1.13384956 31 0 C32.85287502 -0.07226502 34.70833878 -0.0838122 36.5625 -0.0625 C37.57441406 -0.05347656 38.58632813 -0.04445313 39.62890625 -0.03515625 C40.41136719 -0.02355469 41.19382812 -0.01195313 42 0 C41.3186463 2.8937577 40.46523605 5.66916372 39.48120117 8.47387695 C39.17385544 9.35191483 38.8665097 10.2299527 38.54985046 11.13459778 C38.2175795 12.07631332 37.88530853 13.01802887 37.54296875 13.98828125 C37.02661613 15.45312202 37.02661613 15.45312202 36.49983215 16.94755554 C35.77043876 19.01319624 35.03991621 21.07843851 34.30834961 23.14331055 C33.19614154 26.28806614 32.09314081 29.43595669 30.99023438 32.58398438 C30.27921638 34.59395192 29.56764561 36.60372402 28.85546875 38.61328125 C28.52927048 39.5489241 28.2030722 40.48456696 27.86698914 41.44856262 C23.31238281 54.20790333 23.31238281 54.20790333 18.5 57.9375 C13.34411984 59.50267791 8.34659848 59.23358925 3 59 C3 56.36 3 53.72 3 51 C3.93972656 50.85304688 3.93972656 50.85304688 4.8984375 50.703125 C5.71570313 50.55359375 6.53296875 50.4040625 7.375 50.25 C8.18710937 50.11078125 8.99921875 49.9715625 9.8359375 49.828125 C12.14337247 49.18544074 12.14337247 49.18544074 13.265625 47.08984375 C14.86995925 42.5243181 14.21523919 39.17317861 12.19921875 34.9140625 C9.98024713 30.05451466 8.17503058 25.11110009 6.4375 20.0625 C6.14681641 19.23298828 5.85613281 18.40347656 5.55664062 17.54882812 C3.54038227 11.7436279 1.73342223 5.89574308 0 0 Z " fill="#171E2E" transform="translate(349,88)"/>
<path d="M0 0 C1.7634375 -0.01160156 1.7634375 -0.01160156 3.5625 -0.0234375 C8.62699396 0.56358339 12.662068 2.34308533 15.875 6.375 C18 9.375 18 9.375 18 12.375 C14.65695011 12.96194769 11.39944995 13.43444984 8 13.375 C6.6256709 12.08396357 5.29103643 10.7493291 4 9.375 C0.97408775 9.00934686 -1.96633876 9.14164144 -5 9.375 C-5.33 10.695 -5.66 12.015 -6 13.375 C-5.08504761 13.64594482 -5.08504761 13.64594482 -4.15161133 13.92236328 C-1.36508834 14.76057057 1.41078543 15.62987746 4.1875 16.5 C5.14720703 16.78359375 6.10691406 17.0671875 7.09570312 17.359375 C13.15849588 19.28939899 16.58416318 20.91396676 20 26.375 C20.97322204 32.32246799 19.36773326 35.64196947 16 40.375 C9.70584262 45.21665953 1.62640858 45.07730222 -6 44.375 C-10.74256248 43.03421093 -13.38481271 41.12860443 -16.5 37.3125 C-18 34.375 -18 34.375 -18 31.375 C-14.37 31.045 -10.74 30.715 -7 30.375 C-6.34 31.695 -5.68 33.015 -5 34.375 C-1.87293041 35.9385348 1.57982443 35.77458487 5 35.375 C5.99 34.715 6.98 34.055 8 33.375 C8 32.385 8 31.395 8 30.375 C6.75863281 29.97667969 5.51726563 29.57835938 4.23828125 29.16796875 C2.59624897 28.63313538 0.95432768 28.09796115 -0.6875 27.5625 C-1.50412109 27.30146484 -2.32074219 27.04042969 -3.16210938 26.77148438 C-13.68754186 23.31982433 -13.68754186 23.31982433 -16.2890625 19.46484375 C-17.54935095 15.76014967 -17.55162294 12.22946527 -17 8.375 C-13.23556521 1.71484614 -7.32853726 -0.04821406 0 0 Z " fill="#161E2D" transform="translate(659,86.625)"/>
<path d="M0 0 C3.65541817 2.16388391 5.48542468 4.63352229 7.4375 8.375 C7.4375 9.035 7.4375 9.695 7.4375 10.375 C4.09207509 10.9726293 0.84093308 11.43286362 -2.5625 11.375 C-5.1875 9.4375 -5.1875 9.4375 -7.5625 7.375 C-11.02573397 6.84842641 -14.37290448 6.78020224 -17.5625 8.375 C-17.5625 9.365 -17.5625 10.355 -17.5625 11.375 C-17.01835449 11.53581055 -16.47420898 11.69662109 -15.91357422 11.86230469 C-13.41832106 12.6061586 -10.92801205 13.36543034 -8.4375 14.125 C-7.5815625 14.37765625 -6.725625 14.6303125 -5.84375 14.890625 C-0.79114854 16.4452716 3.26626656 18.09665039 7.4375 21.375 C9.16468316 24.82936632 8.79224942 28.59100619 8.4375 32.375 C6.59822383 36.97319043 3.67905645 38.95125346 -0.5625 41.375 C-6.99361295 43.44557155 -14.9074142 43.55678812 -21.0625 40.6875 C-24.33036548 38.76482655 -26.53430052 36.62011916 -28.5625 33.375 C-28.8925 32.055 -29.2225 30.735 -29.5625 29.375 C-25.9325 29.045 -22.3025 28.715 -18.5625 28.375 C-18.2325 29.695 -17.9025 31.015 -17.5625 32.375 C-14.73533905 33.31738698 -12.93073877 33.50965647 -10 33.5 C-8.82244141 33.50386719 -8.82244141 33.50386719 -7.62109375 33.5078125 C-5.49811023 33.50476366 -5.49811023 33.50476366 -3.5625 32.375 C-2.90694881 29.84766765 -2.90694881 29.84766765 -2.5625 27.375 C-3.72007812 27.13265625 -4.87765625 26.8903125 -6.0703125 26.640625 C-7.60952146 26.30274986 -9.14857601 25.96417075 -10.6875 25.625 C-11.82832031 25.38910156 -11.82832031 25.38910156 -12.9921875 25.1484375 C-18.88640285 23.82732027 -23.51882586 21.89553144 -27.4375 17.0625 C-28.9502643 13.44867417 -29.16645126 11.26713031 -28.5625 7.375 C-22.55227267 -2.5418751 -10.42782333 -4.7042812 0 0 Z " fill="#151D2D" transform="translate(625.5625,88.625)"/>
<path d="M0 0 C3.41142371 2.51795559 6.32725552 5.35236677 8.625 8.9375 C8.625 9.9275 8.625 10.9175 8.625 11.9375 C4.995 12.2675 1.365 12.5975 -2.375 12.9375 C-3.035 11.6175 -3.695 10.2975 -4.375 8.9375 C-7.18415474 7.53292263 -9.26310534 7.68854843 -12.375 7.9375 C-14.80157989 9.24916481 -16.07004111 10.03676049 -16.96484375 12.6796875 C-18.05988956 18.70765397 -18.14293696 24.87803269 -16 30.625 C-14.58205855 33.031758 -14.58205855 33.031758 -12.375 33.9375 C-8.32357881 34.19610135 -6.83162331 34.24191554 -3.375 31.9375 C-2.715 30.2875 -2.055 28.6375 -1.375 26.9375 C2.255 27.2675 5.885 27.5975 9.625 27.9375 C8.28970673 33.41220242 5.83065687 37.25633614 1.625 40.9375 C-4.70649041 43.73796691 -12.05423002 44.02313634 -18.625 41.875 C-24.25611493 37.90762357 -27.59325935 33.63946026 -29.375 26.9375 C-30.1544417 19.04338695 -30.50407488 12.25020755 -25.375 5.9375 C-18.07709852 -1.3272292 -10.06956032 -3.17004677 0 0 Z " fill="#161E2D" transform="translate(911.375,88.0625)"/>
<path d="M0 0 C3.63 0 7.26 0 11 0 C20 20.80327869 20 20.80327869 20 28 C20.66 28 21.32 28 22 28 C22.0928125 26.88496094 22.185625 25.76992187 22.28125 24.62109375 C22.92540453 19.47579603 24.64699079 14.88106812 26.5 10.0625 C26.98146484 8.76989258 26.98146484 8.76989258 27.47265625 7.45117188 C29.84381914 1.15618086 29.84381914 1.15618086 31 0 C32.85287502 -0.07226502 34.70833878 -0.0838122 36.5625 -0.0625 C37.57441406 -0.05347656 38.58632813 -0.04445313 39.62890625 -0.03515625 C40.41136719 -0.02355469 41.19382812 -0.01195313 42 0 C39.64578738 8.77028931 36.28134385 17.10184335 32.875 25.5 C32.31862756 26.8826585 31.76263532 28.26547006 31.20703125 29.6484375 C27.19843665 39.60312671 27.19843665 39.60312671 26 42 C22.7 42 19.4 42 16 42 C12.00157474 33.71957322 8.54617253 25.38514667 5.390625 16.7578125 C3.92825152 12.76347832 2.32248531 8.83481287 0.6640625 4.91796875 C0 3 0 3 0 0 Z " fill="#161E2D" transform="translate(973,88)"/>
<path d="M0 0 C0 4.62 0 9.24 0 14 C2.31 14 4.62 14 7 14 C7 16.64 7 19.28 7 22 C4.69 22 2.38 22 0 22 C0.33 30.58 0.66 39.16 1 48 C3.31 48 5.62 48 8 48 C8 50.64 8 53.28 8 56 C3.65349307 57.21229105 -0.51380522 57.59975866 -5 57 C-7.87029869 55.20606332 -9.49131638 54.01736724 -11 51 C-11.08559118 48.82175039 -11.10713412 46.64084745 -11.09765625 44.4609375 C-11.09282227 42.50800781 -11.09282227 42.50800781 -11.08789062 40.515625 C-11.07953466 39.13541601 -11.07106971 37.75520768 -11.0625 36.375 C-11.05748501 34.98698074 -11.0529221 33.59895978 -11.04882812 32.2109375 C-11.03700976 28.80724868 -11.02053434 25.40364561 -11 22 C-12.65 22 -14.3 22 -16 22 C-16 19.36 -16 16.72 -16 14 C-14.35 14 -12.7 14 -11 14 C-11.20625 12.80375 -11.4125 11.6075 -11.625 10.375 C-11.66015625 8.1796875 -11.66015625 8.1796875 -11 6 C-8.26715788 3.67148211 -3.7712481 0 0 0 Z " fill="#151D2C" transform="translate(745,74)"/>
<path d="M0 0 C0 4.62 0 9.24 0 14 C2.31 14 4.62 14 7 14 C7 16.64 7 19.28 7 22 C4.69 22 2.38 22 0 22 C0.33 30.58 0.66 39.16 1 48 C3.31 48 5.62 48 8 48 C8 50.64 8 53.28 8 56 C3.65349307 57.21229105 -0.51380522 57.59975866 -5 57 C-7.87029869 55.20606332 -9.49131638 54.01736724 -11 51 C-11.08559118 48.82175039 -11.10713412 46.64084745 -11.09765625 44.4609375 C-11.09282227 42.50800781 -11.09282227 42.50800781 -11.08789062 40.515625 C-11.07953466 39.13541601 -11.07106971 37.75520768 -11.0625 36.375 C-11.05748501 34.98698074 -11.0529221 33.59895978 -11.04882812 32.2109375 C-11.03700976 28.80724868 -11.02053434 25.40364561 -11 22 C-12.65 22 -14.3 22 -16 22 C-16 19.36 -16 16.72 -16 14 C-14.35 14 -12.7 14 -11 14 C-11.20625 12.80375 -11.4125 11.6075 -11.625 10.375 C-11.66015625 8.1796875 -11.66015625 8.1796875 -11 6 C-8.26715788 3.67148211 -3.7712481 0 0 0 Z " fill="#151D2C" transform="translate(459,74)"/>
<path d="M0 0 C0.99 0.66 1.98 1.32 3 2 C2.54177532 5.46941546 2.10868317 8.67395049 1 12 C-0.258125 11.938125 -1.51625 11.87625 -2.8125 11.8125 C-6.09299176 11.78497301 -6.09299176 11.78497301 -8.9375 13.3125 C-11.08070249 16.71640984 -11.17720898 19.84430998 -11.31640625 23.76171875 C-11.35830078 24.87998047 -11.40019531 25.99824219 -11.44335938 27.15039062 C-11.48267578 28.31763672 -11.52199219 29.48488281 -11.5625 30.6875 C-11.60568359 31.86634766 -11.64886719 33.04519531 -11.69335938 34.25976562 C-11.79951094 37.17303626 -11.90026629 40.0865026 -12 43 C-15.63 43 -19.26 43 -23 43 C-23 29.14 -23 15.28 -23 1 C-19.7 1 -16.4 1 -13 1 C-12.67 2.32 -12.34 3.64 -12 5 C-11.13375 4.175 -10.2675 3.35 -9.375 2.5 C-6.22440599 -0.12921912 -4.15026879 -0.64559737 0 0 Z " fill="#151D2C" transform="translate(1089,87)"/>
<path d="M0 0 C0.99 0.66 1.98 1.32 3 2 C2.54177532 5.46941546 2.10868317 8.67395049 1 12 C-0.258125 11.938125 -1.51625 11.87625 -2.8125 11.8125 C-6.09299176 11.78497301 -6.09299176 11.78497301 -8.9375 13.3125 C-11.08070249 16.71640984 -11.17720898 19.84430998 -11.31640625 23.76171875 C-11.35830078 24.87998047 -11.40019531 25.99824219 -11.44335938 27.15039062 C-11.48267578 28.31763672 -11.52199219 29.48488281 -11.5625 30.6875 C-11.60568359 31.86634766 -11.64886719 33.04519531 -11.69335938 34.25976562 C-11.79951094 37.17303626 -11.90026629 40.0865026 -12 43 C-15.63 43 -19.26 43 -23 43 C-23 29.14 -23 15.28 -23 1 C-19.7 1 -16.4 1 -13 1 C-12.67 2.32 -12.34 3.64 -12 5 C-11.13375 4.175 -10.2675 3.35 -9.375 2.5 C-6.22440599 -0.12921912 -4.15026879 -0.64559737 0 0 Z " fill="#151D2C" transform="translate(345,87)"/>
<path d="M0 0 C3.78866148 1.72211886 5.53588941 3.12824087 7 7 C7.30078125 10.27734375 7.30078125 10.27734375 7.3125 13.9375 C7.33763672 15.74541016 7.33763672 15.74541016 7.36328125 17.58984375 C6.97205124 21.26235775 6.22463881 23.08765083 4 26 C0.24952518 28.50031654 -1.55856266 28.53603554 -6 28 C-9.6466756 25.16369676 -11.87710075 22.49159698 -13 18 C-13.8054168 11.43275535 -12.84557337 7.38380271 -9 2 C-5.4913604 -0.33909307 -4.12910567 -0.41291057 0 0 Z " fill="#F8F8F9" transform="translate(950,95)"/>
<path d="M0 0 C3.78866148 1.72211886 5.53588941 3.12824087 7 7 C7.30078125 10.27734375 7.30078125 10.27734375 7.3125 13.9375 C7.33763672 15.74541016 7.33763672 15.74541016 7.36328125 17.58984375 C6.97205124 21.26235775 6.22463881 23.08765083 4 26 C0.24952518 28.50031654 -1.55856266 28.53603554 -6 28 C-9.6466756 25.16369676 -11.87710075 22.49159698 -13 18 C-13.8054168 11.43275535 -12.84557337 7.38380271 -9 2 C-5.4913604 -0.33909307 -4.12910567 -0.41291057 0 0 Z " fill="#F8F8F9" transform="translate(495,95)"/>
<path d="M0 0 C2.57285724 2.172635 4.48996919 3.97993838 6 7 C6.17721577 9.45487423 6.27736821 11.85561664 6.3125 14.3125 C6.34988281 15.62863281 6.38726562 16.94476563 6.42578125 18.30078125 C5.94219336 22.50222832 4.96928843 24.06376487 2 27 C-0.925916 28.462958 -2.75617347 28.44523109 -6 28 C-10.57335755 23.42664245 -12.14442109 20.04862918 -12.25 13.6875 C-12.20715383 9.06011337 -11.69683062 5.89542201 -9 2 C-5.48175489 -0.34549674 -4.14224306 -0.57991403 0 0 Z " fill="#F9F9FA" transform="translate(421,95)"/>
<path d="M0 0 C3.08427046 -0.10800947 6.16475747 -0.18731002 9.25 -0.25 C10.12269531 -0.28351563 10.99539063 -0.31703125 11.89453125 -0.3515625 C18.36262055 -0.45031195 18.36262055 -0.45031195 21.58203125 1.82421875 C23.49492888 4.75943633 23.51175389 6.56393817 23 10 C21.45493534 12.03667615 20.27853844 12.86073078 18 14 C16.62451844 14.08308638 15.24514204 14.10736016 13.8671875 14.09765625 C13.06152344 14.09443359 12.25585938 14.09121094 11.42578125 14.08789062 C10.58402344 14.07951172 9.74226562 14.07113281 8.875 14.0625 C8.02550781 14.05798828 7.17601562 14.05347656 6.30078125 14.04882812 C4.20049091 14.03702874 2.1002367 14.01909306 0 14 C0 9.38 0 4.76 0 0 Z " fill="#FBFBFB" transform="translate(794,82)"/>
<path d="M0 0 C2.91619791 3.40365621 4.2238027 6.91412309 5.6875 11.125 C6.34298828 12.98511719 6.34298828 12.98511719 7.01171875 14.8828125 C8 18 8 18 8 20 C3.05 20 -1.9 20 -7 20 C-3.88 3.88 -3.88 3.88 0 0 Z " fill="#F0F0F1" transform="translate(564,87)"/>
<path d="M0 0 C2.8125 1.625 2.8125 1.625 5 4 C5.33 5.98 5.66 7.96 6 10 C0.39 10 -5.22 10 -11 10 C-10 4 -10 4 -8.3125 1.625 C-5.25039216 -0.52675145 -3.67572916 -0.60011905 0 0 Z " fill="#F5F5F6" transform="translate(1041,95)"/>
<path d="M0 0 C2.875 2.1875 2.875 2.1875 5 5 C5 6.65 5 8.3 5 10 C-0.28 10 -5.56 10 -11 10 C-10 3 -10 3 -8.3125 1.0625 C-5.2135552 -0.3613395 -3.37817188 -0.55153827 0 0 Z " fill="#F6F6F7" transform="translate(859,95)"/>
<path d="M0 0 C2.875 2.1875 2.875 2.1875 5 5 C5 6.65 5 8.3 5 10 C-0.28 10 -5.56 10 -11 10 C-10 3 -10 3 -8.3125 1.0625 C-5.2135552 -0.3613395 -3.37817188 -0.55153827 0 0 Z " fill="#F6F7F7" transform="translate(708,95)"/>
</svg>
